<?xml version="1.0" encoding="utf-8"?>
<!-- Generator: Adobe Illustrator 15.0.2, SVG Export Plug-In . SVG Version: 6.00 Build 0)  -->
<!DOCTYPE svg PUBLIC "-//W3C//DTD SVG 1.1//EN" "http://www.w3.org/Graphics/SVG/1.1/DTD/svg11.dtd">
<svg version="1.1" id="Layer_1" xmlns="http://www.w3.org/2000/svg" xmlns:xlink="http://www.w3.org/1999/xlink" x="0px" y="0px"
	 width="47px" height="48px" viewBox="0 0 47 48" style="enable-background:new 0 0 47 48;" xml:space="preserve">
<g>
	<g>
		<g>
			<path style="fill-rule:evenodd;clip-rule:evenodd;fill:#FFFFFF;stroke:#30333c;stroke-width:0.1;stroke-miterlimit:10;" d="
				M17,15.5c-3.167,0-6.333,0-9.5,0c0,9,0,18,0,27c10.833,0,21.667,0,32.5,0c0-9,0-18,0-27c-3.333,0-6.667,0-10,0
				c0.448-3.615-0.795-5.538-2-7.5C21.956,4.808,16.303,8.817,17,15.5z"/>
			<path style="fill-rule:evenodd;clip-rule:evenodd;stroke:#30333c;stroke-width:0.1;stroke-miterlimit:10;" d="M28,8
				c1.205,1.962,2.448,3.885,2,7.5c3.333,0,6.667,0,10,0c0,9,0,18,0,27c-10.833,0-21.667,0-32.5,0c0-9,0-18,0-27
				c3.167,0,6.333,0,9.5,0C16.303,8.817,21.956,4.808,28,8z M19,15.5c3.167,0,6.333,0,9.5,0C30.595,6.221,16.7,5.695,19,15.5z M9,17
				c0,8.167,0,16.333,0,24.5c9.833,0,19.667,0,29.5,0c0-8.167,0-16.333,0-24.5C28.667,17,18.833,17,9,17z"/>
			<path style="fill-rule:evenodd;clip-rule:evenodd;fill:#FFFFFF;stroke:#30333c;stroke-width:0.1;stroke-miterlimit:10;" d="
				M28.5,15.5c-3.167,0-6.333,0-9.5,0C16.7,5.695,30.595,6.221,28.5,15.5z"/>
			<path style="fill-rule:evenodd;clip-rule:evenodd;fill:#FFFFFF;stroke:#30333c;stroke-width:0.1;stroke-miterlimit:10;" d="
				M38.5,17c0,8.167,0,16.333,0,24.5c-9.833,0-19.667,0-29.5,0C9,33.333,9,25.167,9,17C18.833,17,28.667,17,38.5,17z"/>
		</g>
	</g>
</g>
</svg>
