<?xml version="1.0" encoding="utf-8"?>
<!-- Generator: Adobe Illustrator 18.1.1, SVG Export Plug-In . SVG Version: 6.00 Build 0)  -->
<!DOCTYPE svg PUBLIC "-//W3C//DTD SVG 1.1//EN" "http://www.w3.org/Graphics/SVG/1.1/DTD/svg11.dtd">
<svg version="1.1" id="Layer_1" xmlns="http://www.w3.org/2000/svg" xmlns:xlink="http://www.w3.org/1999/xlink" x="0px" y="0px"
	 viewBox="0 0 26 26" enable-background="new 0 0 26 26" xml:space="preserve">
<path fill="#808080" d="M16.4,5C13.2,1.8,8.1,1.8,4.9,5c-3.2,3.2-3.2,8.3,0,11.5c2.8,2.8,7.2,3.1,10.4,0.9c0.1,0.3,0.2,0.6,0.5,0.9
	l4.6,4.6c0.7,0.7,1.8,0.7,2.4,0c0.7-0.7,0.7-1.8,0-2.4l-4.6-4.6c-0.2-0.2-0.5-0.4-0.9-0.5C19.5,12.2,19.2,7.8,16.4,5z M14.9,15
	c-2.4,2.4-6.2,2.4-8.6,0C4,12.6,4,8.8,6.4,6.4c2.4-2.4,6.2-2.4,8.6,0S17.3,12.6,14.9,15z"/>
</svg>
